<?xml version="1.0" encoding="UTF-8"?>
<svg width="361px" height="202px" viewBox="0 0 361 202" version="1.1" xmlns="http://www.w3.org/2000/svg" xmlns:xlink="http://www.w3.org/1999/xlink">
    <!-- Generator: Sketch 46.2 (44496) - http://www.bohemiancoding.com/sketch -->
    <title>MOONSHOT</title>
    <desc>Created with Sketch.</desc>
    <defs></defs>
    <g id="Page-1" stroke="none" stroke-width="1" fill="none" fill-rule="evenodd">
        <g id="MOONSHOT" transform="translate(0.000000, -0.488000)">
            <polygon id="Fill-1" fill="#fff" fill-rule="nonzero" points="12.404 138.744 27.372 138.744 27.372 57.833 12.404 57.833"></polygon>
            <polygon id="Fill-2" fill="#fff" fill-rule="nonzero" points="94.6812 105.1191 56.5382 56.8331 42.6952 56.8331 42.6952 139.7441 59.9452 139.7441 59.9452 87.1041 97.9322 135.9561 100.9752 139.7441 111.9272 139.7441 111.9272 56.7171 94.6812 56.7171"></polygon>
            <path d="M140.8433,73.2832 L156.4843,73.2832 C167.9103,73.2832 180.2963,79.6472 180.7893,97.5072 C180.9893,105.1292 178.6383,111.8532 174.1693,116.4412 C169.8883,120.8362 163.9383,123.0642 156.4843,123.0642 L140.8433,123.0642 L140.8433,73.2832 Z M156.4843,56.8332 L123.7063,56.8332 L123.7063,139.7442 L156.4843,139.7442 C168.7943,139.7442 179.1813,135.7982 186.5213,128.3332 C193.9703,120.7572 198.1273,109.5482 197.9263,97.5782 C197.6013,78.7822 186.5533,56.8332 156.4843,56.8332 L156.4843,56.8332 Z" id="Fill-3" fill="#fff" fill-rule="nonzero"></path>
            <path d="M262.6133,104.3027 C262.6133,117.8447 255.7753,125.6117 243.8533,125.6117 C231.1993,125.6117 223.9393,117.8447 223.9393,104.3027 L223.9393,56.9477 L206.8043,56.9477 L206.8043,104.3027 C206.8043,126.8887 221.3033,141.4827 243.7383,141.4827 C265.9493,141.4827 279.7483,127.2367 279.7483,104.3027 L279.7483,56.9477 L262.6133,56.9477 L262.6133,104.3027 Z" id="Fill-5" fill="#fff" fill-rule="nonzero"></path>
            <path d="M326.6172,88.2763 C316.3322,87.0523 309.4822,85.0243 309.4822,79.0993 C309.4822,73.0833 315.5152,69.3453 325.2282,69.3453 C333.8012,69.3453 341.0602,73.7423 343.5392,77.8793 L344.0212,78.6833 L357.8512,71.5633 L357.4222,70.6833 C352.0882,59.8023 340.7972,54.0513 324.7582,54.0513 C308.6852,54.1763 292.4692,61.8253 292.4692,78.6343 C292.4692,87.3333 295.7932,93.6053 302.6312,97.8103 C309.1562,101.8233 318.0722,103.2993 325.1212,104.1363 C337.2752,105.4483 342.9372,108.9163 342.9372,115.0513 C342.9372,125.3853 329.4712,126.1893 325.3422,126.1893 C314.7522,126.1893 306.5942,121.6263 303.5192,113.9823 L303.1092,112.9613 L288.6172,120.4793 L288.9612,121.3233 C294.5622,135.1243 306.3872,141.8323 325.1112,141.8323 C350.8832,141.8323 360.0642,127.9983 360.0642,115.0513 C360.0642,95.1503 343.9902,90.4223 326.6172,88.2763" id="Fill-7" fill="#fff" fill-rule="nonzero"></path>
            <polygon id="Fill-9" fill="#fff" fill-rule="nonzero" points="0.1685 10.2793 12.4035 10.2793 12.4035 42.3023 22.6795 42.3023 22.6795 10.2793 34.9135 10.2793 34.9135 0.6553 0.1685 0.6553"></polygon>
            <polygon id="Fill-11" fill="#fff" fill-rule="nonzero" points="46.0367 42.3027 77.8867 42.3027 77.8867 32.1227 56.2477 32.1227 56.2477 26.3997 77.1167 26.3997 77.1167 16.6097 56.2477 16.6097 56.2477 10.7207 77.8867 10.7207 77.8867 0.6557 46.0367 0.6557"></polygon>
            <path d="M114.0279,25.2236 L104.2969,25.2236 L109.1619,14.0336 L114.0279,25.2236 Z M104.2279,0.6566 L85.6079,42.3026 L96.7579,42.3026 L100.0589,35.0136 L118.2599,35.0136 L121.5079,42.3026 L132.7199,42.3026 L114.0969,0.6566 L104.2279,0.6566 Z" id="Fill-13" fill="#fff" fill-rule="nonzero"></path>
            <polygon id="Fill-15" fill="#fff" fill-rule="nonzero" points="174.8794 0.7109 163.5474 16.2789 152.2144 0.7109 141.5524 0.7109 141.5524 42.3569 151.8454 42.3569 151.8454 17.3489 161.9004 31.0939 164.8474 31.0939 175.1914 17.3079 175.1914 42.3569 185.4844 42.3569 185.4844 0.7109"></polygon>
            <path d="M44.881,200.547 L52.669,200.547 L52.669,159.247 L43.76,159.247 L30.839,177.006 L17.918,159.247 L8.95,159.247 L8.95,200.547 L16.738,200.547 L16.738,170.516 L29.895,188.511 L31.429,188.511 L44.881,170.575 L44.881,200.547 Z M79.396,158.362 C93.615,158.362 100.695,169.277 100.577,180.074 C100.459,190.753 93.91,201.432 79.396,201.432 C64.882,201.432 58.156,190.989 58.156,180.133 C58.156,169.277 65.118,158.362 79.396,158.362 Z M79.396,165.442 C69.661,165.442 65.649,173.289 65.826,180.251 C66.003,187.036 69.661,194.293 79.396,194.293 C89.131,194.293 92.789,186.977 92.907,180.192 C93.025,173.23 89.131,165.442 79.396,165.442 Z M125.711,158.362 C139.93,158.362 147.01,169.277 146.892,180.074 C146.774,190.753 140.225,201.432 125.711,201.432 C111.197,201.432 104.471,190.989 104.471,180.133 C104.471,169.277 111.433,158.362 125.711,158.362 Z M125.711,165.442 C115.976,165.442 111.964,173.289 112.141,180.251 C112.318,187.036 115.976,194.293 125.711,194.293 C135.446,194.293 139.104,186.977 139.222,180.192 C139.34,173.23 135.446,165.442 125.711,165.442 Z M179.755,184.794 L159.518,159.188 L153.205,159.188 L153.205,200.488 L160.993,200.488 L160.993,172.64 L182.705,200.547 L182.705,200.488 L187.543,200.488 L187.543,159.129 L179.755,159.129 L179.755,184.794 Z M227.014,165.973 C223.887,159.601 217.22,157.772 210.789,157.772 C203.178,157.831 194.8,161.312 194.8,169.808 C194.8,179.071 202.588,181.313 211.025,182.316 C216.512,182.906 220.583,184.499 220.583,188.393 C220.583,192.877 215.981,194.588 211.084,194.588 C206.069,194.588 201.29,192.582 199.461,188.039 L192.971,191.402 C196.039,198.954 202.529,201.55 210.966,201.55 C220.17,201.55 228.312,197.597 228.312,188.393 C228.312,178.54 220.288,176.298 211.674,175.236 C206.718,174.646 202.47,173.643 202.47,170.044 C202.47,166.976 205.243,164.557 211.025,164.557 C215.509,164.557 219.403,166.799 220.819,169.159 L227.014,165.973 Z M270.202,200.547 L270.202,159.247 L262.473,159.247 L262.473,176.652 L242.177,176.652 L242.177,159.247 L234.389,159.247 L234.389,200.547 L242.177,200.547 L242.177,183.85 L262.473,183.85 L262.473,200.547 L270.202,200.547 Z M296.929,158.362 C311.148,158.362 318.228,169.277 318.11,180.074 C317.992,190.753 311.443,201.432 296.929,201.432 C282.415,201.432 275.689,190.989 275.689,180.133 C275.689,169.277 282.651,158.362 296.929,158.362 Z M296.929,165.442 C287.194,165.442 283.182,173.289 283.359,180.251 C283.536,187.036 287.194,194.293 296.929,194.293 C306.664,194.293 310.322,186.977 310.44,180.192 C310.558,173.23 306.664,165.442 296.929,165.442 Z M332.093,200.488 L339.881,200.488 L339.881,166.268 L352.979,166.268 L352.979,159.188 L318.995,159.188 L318.995,166.268 L332.093,166.268 L332.093,200.488 Z" fill="#009FDF"></path>
        </g>
    </g>
</svg>